<svg width="246" height="123" viewBox="0 0 246 123" fill="none" xmlns="http://www.w3.org/2000/svg">
<path d="M122.856 0C55.2913 0 0.555664 54.7357 0.555664 122.3H6.46463C6.46463 58.0012 58.5568 5.90896 122.856 5.90896C187.155 5.90896 239.247 58.0012 239.247 122.3H245.156C245.078 54.7357 190.342 0 122.856 0Z" fill="#FED0B2"/>
<path d="M122.856 73.7843C96.032 73.7843 74.3398 95.4764 74.3398 122.3H114.07C114.07 117.402 118.035 113.514 122.856 113.514C127.676 113.514 131.641 117.48 131.641 122.3H171.371C171.371 95.4764 149.601 73.7843 122.856 73.7843Z" fill="#FED0B2"/>
<path d="M69.0529 106.828C75.7394 83.4252 97.276 66.3204 122.778 66.3204V10.4185C73.0959 10.4185 30.9557 42.84 16.4165 87.7015L69.0529 106.828Z" fill="#FED0B2"/>
</svg>
